Coordinates
version=1
nRows=11
nColumns=40
inDegrees=yes

Units are S.I. units (second, meters, Newtons, ...)
Angles are in degrees.

endheader
time	pelvis_tilt	pelvis_list	pelvis_rotation	pelvis_tx	pelvis_ty	pelvis_tz	hip_flexion_r	hip_adduction_r	hip_rotation_r	knee_angle_r	knee_angle_r_beta	ankle_angle_r	subtalar_angle_r	mtp_angle_r	hip_flexion_l	hip_adduction_l	hip_rotation_l	knee_angle_l	knee_angle_l_beta	ankle_angle_l	subtalar_angle_l	mtp_angle_l	lumbar_extension	lumbar_bending	lumbar_rotation	arm_flex_r	arm_add_r	arm_rot_r	elbow_flex_r	pro_sup_r	wrist_flex_r	wrist_dev_r	arm_flex_l	arm_add_l	arm_rot_l	elbow_flex_l	pro_sup_l	wrist_flex_l	wrist_dev_l
      0.88000000	     -2.99960191	      8.24149159	     -4.74493269	     -0.18334372	      0.94830533	      1.41791165	     12.34425560	    -21.38247015	    -12.43472515	    -59.14042314	     -1.03219510	     -3.87701985	    -14.65484298	     -2.07546516	     15.53846598	    -10.05206125	     12.34191525	    -15.44506486	     -0.26956723	      0.67915996	      8.81624871	      1.64322158	     -1.21016623	    -10.25003339	      5.65041308	      5.78577847	    -11.28118718	     -3.28714120	     22.49594076	     89.95437384	      0.00000000	      0.00000000	      1.91846152	      9.72322350	      7.63542841	     14.49129011	     89.95437384	      0.00000000	      0.00000000
      0.89000000	     -2.85208475	      8.02262633	     -5.02931144	     -0.17493294	      0.94998546	      1.41649430	     13.68593398	    -21.04984514	    -12.13598254	    -59.50557407	     -1.03856819	     -2.73681159	    -15.73442783	     -1.39970752	     14.34751572	     -9.99480725	     12.77598253	    -14.57769541	     -0.25442878	      0.82122632	      8.34952203	      1.60088714	     -1.49654723	     -9.98443038	      5.39693811	      5.80851998	    -11.24588210	     -2.70488171	     21.53498883	     89.95437384	      0.00000000	      0.00000000	      2.76962739	      9.75216030	      7.26614942	     15.76035419	     89.95437384	      0.00000000	      0.00000000
      0.90000000	     -2.62459376	      7.55184396	     -5.18823002	     -0.16649801	      0.95179296	      1.41528713	     14.81529717	    -20.40285195	    -12.13416877	    -59.77121349	     -1.04320447	      0.70945838	    -16.26266563	     14.92549965	     13.13267907	     -9.56281370	     13.60820221	    -13.95440064	     -0.24355024	      0.81490576	      6.97809031	      0.77304915	     -1.88933966	     -9.46437398	      5.10179025	      5.73418299	    -11.26373342	     -2.27496158	     20.79379568	     89.95437384	      0.00000000	      0.00000000	      3.55778037	      9.92569038	      5.93943315	     17.21177041	     89.95437384	      0.00000000	      0.00000000
      0.91000000	     -2.58562104	      7.24618499	     -5.21532113	     -0.15827693	      0.95325006	      1.41350507	     15.99970830	    -20.03564389	    -12.35675899	    -59.52839434	     -1.03896648	      1.51640472	    -16.89666705	     14.86223940	     12.07450380	     -9.50258558	     13.53951157	    -13.13980129	     -0.22933280	      0.99070133	      6.69258751	      0.73025231	     -2.11725163	     -9.07362926	      4.64906157	      5.70557010	    -11.23946532	     -1.91570033	     19.99577128	     89.95437384	      0.00000000	      0.00000000	      4.46627379	      9.95428219	      5.80488345	     18.38872976	     89.95437384	      0.00000000	      0.00000000
      0.92000000	     -2.39993858	      6.86995965	     -5.09984703	     -0.14985100	      0.95488851	      1.41157047	     16.82173884	    -19.63364087	    -12.86616274	    -58.93814888	     -1.02866475	      2.11923345	    -17.26553180	     14.97760483	     10.83735197	     -9.38414815	     13.42512828	    -12.34162506	     -0.21540199	      1.05794997	      6.27323947	      0.69296605	     -2.50686224	     -8.59849126	      4.06594852	      5.63663502	    -11.30820017	     -1.21075546	     19.24891897	     89.95437384	      0.00000000	      0.00000000	      5.26554637	     10.07652155	      5.36391834	     19.84170227	     89.95437384	      0.00000000	      0.00000000
      0.93000000	     -1.97724921	      6.34193359	     -4.81526178	     -0.14117274	      0.95679454	      1.40963624	     17.08786975	    -19.14174584	    -13.78398295	    -57.94510253	     -1.01133282	      2.60966464	    -17.44473750	     15.60201067	      9.36265159	     -9.09058980	     13.44189938	    -11.66176625	     -0.20353622	      1.34692835	      5.59907031	      0.75435699	     -3.16959484	     -7.98629345	      3.34938824	      5.41279478	    -11.46375412	     -0.33615002	     18.88693198	     89.95437384	      0.00000000	      0.00000000	      6.04021937	     10.32094485	      4.43753342	     21.39675816	     89.95437384	      0.00000000	      0.00000000
      0.94000000	     -2.13956014	      5.94570056	     -4.57667070	     -0.13317592	      0.95762840	      1.40773259	     18.19904317	    -18.64926712	    -14.40304206	    -56.94596595	     -0.99389460	      3.18860689	    -17.52634916	     15.61856480	      8.67530760	     -8.88180185	     13.18733205	    -11.13421891	     -0.19432878	      1.53725239	      5.16282403	      0.73071819	     -3.19968959	     -7.46963923	      2.75572479	      5.22152345	    -11.51643828	     -0.02915129	     18.39843175	     89.95437384	      0.00000000	      0.00000000	      6.84347366	     10.49044146	      4.15522059	     22.84225269	     89.95437384	      0.00000000	      0.00000000
      0.95000000	     -2.31850701	      5.77709501	     -4.37587670	     -0.12525156	      0.95819791	      1.40576096	     19.40100992	    -18.48392985	    -15.05575886	    -55.90915226	     -0.97579879	      3.49315001	    -17.42868419	     15.48145269	      8.18564805	     -8.86912394	     13.39828610	    -10.90963097	     -0.19040898	      1.77787308	      5.04122850	      0.68477156	     -3.17966195	     -7.18094016	      2.31583982	      4.82712619	    -11.57064887	      0.12828535	     18.15151542	     89.95437384	      0.00000000	      0.00000000	      7.86370297	     10.61705189	      4.00087699	     23.90974250	     89.95437384	      0.00000000	      0.00000000
      0.96000000	     -2.50724432	      5.47405692	     -4.05819468	     -0.11703625	      0.95869393	      1.40398288	     20.40777537	    -18.10054204	    -15.81626199	    -54.55258630	     -0.95212225	      3.82175993	    -17.37068064	     15.40866348	      7.59173455	     -8.73322143	     13.23997813	    -10.52936134	     -0.18377202	      2.00483428	      4.75935050	      0.63126806	     -3.10093373	     -6.77006243	      1.76150332	      4.47809301	    -11.60022508	      0.32635969	     17.75269993	     89.95437384	      0.00000000	      0.00000000	      8.67300245	     10.86968788	      3.62976782	     25.28017382	     89.95437384	      0.00000000	      0.00000000
      0.97000000	     -2.08708586	      4.55276532	     -3.24577572	     -0.10889682	      0.96018479	      1.40222949	     20.22167379	    -17.15524856	    -17.37323255	    -52.74769808	     -0.92062100	      3.97154128	    -17.33307590	     15.72554095	      6.21679589	     -7.98330282	     12.08008119	    -10.06956880	     -0.17574713	      2.20769986	      3.99030605	      0.53405799	     -3.89091063	     -5.77300509	      0.52070883	      4.51789131	    -11.57867079	      0.49774575	     17.11319523	     89.95437384	      0.00000000	      0.00000000	      9.01785871	     11.55706155	      2.17715796	     27.83359252	     89.95437384	      0.00000000	      0.00000000
      0.98000000	     -1.71681621	      4.10365763	     -2.77370755	     -0.10044296	      0.96136571	      1.40061152	     20.31004220	    -16.69737867	    -18.57628721	    -50.90324111	     -0.88842916	      4.23711146	    -17.09238464	     16.38515928	      5.02137709	     -7.65434098	     12.01411325	     -9.80055248	     -0.17105191	      2.44368438	      3.41453905	      0.26524001	     -4.48042642	     -5.24354775	     -0.13129201	      4.11008100	    -11.61862949	      0.23580286	     16.97182602	     89.95437384	      0.00000000	      0.00000000	      9.95290344	     12.02913003	      1.12238010	     29.15956541	     89.95437384	      0.00000000	      0.00000000
